<svg xmlns="http://www.w3.org/2000/svg" width="388" height="184" version="1" viewBox="0 0 3880 1840"><g fill="#1f1f1f"><path d="M570 1538c-112-58-168-163-157-295 7-94 51-175 137-257l70-66-40-20C338 776 405 403 695 260c123-61 219-61 289 1 73 63 86 197 32 314-28 61-47 71-122 62-62-7-71-19-39-51 91-91 91-284 0-294-75-9-186 74-233 176-23 49-27 70-27 147 0 110 24 168 91 219l44 33 55-15c44-12 60-13 81-3 23 10 26 16 20 44-11 56-37 72-111 70-59-2-68 1-106 30-62 47-101 123-107 207-4 61-1 76 25 133 40 84 76 110 160 115 54 4 69 1 108-23 70-40 119-113 164-245 45-129 88-97 57 43-33 146-106 257-207 312-46 25-68 30-144 33-86 4-93 3-155-30zM3320 1529c-75-31-129-135-116-226 13-97 71-164 158-183 69-16 126-1 178 46 98 89 91 253-14 338-33 27-46 31-109 33-40 2-83-2-97-8zm148-61c29-32 42-71 42-131 0-108-37-168-104-170-108-3-147 199-58 296 33 35 89 37 120 5zM2240 1512c0-9 9-23 20-30 19-11 20-23 20-162 0-143-1-150-20-150-15 0-20-7-20-25v-25h115c127 0 173 12 200 53 59 91-5 196-130 212l-55 6v45c0 40 2 44 25 44 20 0 25 5 25 25 0 25-1 25-90 25-79 0-90-2-90-18zm196-186c63-18 55-146-10-158-46-9-56 6-56 86 0 77 4 89 29 82 9-2 25-7 37-10zM2710 1511c0-10 9-21 20-24 19-5 20-14 20-161 0-149-1-156-20-156-15 0-20-7-20-25v-25h120c101 0 127 3 160 20 73 37 79 134 11 191l-38 32 40 59c23 32 49 60 59 64 10 3 18 14 18 25 0 16-7 19-53 19-61 0-66-4-118-92-44-76-69-79-69-8 0 47 2 50 25 50 20 0 25 5 25 25 0 25-1 25-90 25-81 0-90-2-90-19zm223-209c11-10 17-29 17-56 0-50-7-62-43-75-51-20-67 2-67 96 0 32 5 53 13 56 18 7 60-4 80-21zM1154 1240c-42-16-42-20-32-375 9-332 7-548-7-592-6-18-1-25 32-41 68-34 90-36 109-7 15 24 15 54-1 443-9 229-20 450-23 491-6 69-9 75-32 81-14 4-35 4-46 0zM1458 1150c-79-43-121-125-120-236 1-189 138-384 270-384 70 0 105 65 82 150-16 60-64 131-149 222l-72 77 16 30c16 33 61 61 95 61 62 0 139-59 216-166l44-62V697c0-145 0-146 26-166 17-13 41-21 67-21h40l-5 52-5 52 19-38c28-54 91-113 136-127 54-16 90 2 120 61 23 44 24 50 18 223-5 153-4 178 9 183 21 8 56-17 88-63 23-33 28-53 32-118 8-140 60-268 141-355 56-60 103-84 147-75 48 11 67 32 67 76 0 36 1 38 24 29 13-5 27-6 30-3 3 4 6 77 6 163s5 171 11 188c27 79 75 37 169-149 76-149 90-168 110-144 17 21 8 49-67 203-75 153-119 207-176 217-52 10-82-6-107-55l-21-42-30 45c-51 77-144 134-200 122-16-4-39-19-52-35l-24-28-40 52c-71 93-158 110-217 45l-29-32 7-161c4-89 3-174-2-191-20-71-82-28-143 99-39 79-39 81-39 201 0 132-7 152-60 180-52 27-60 21-60-43v-58l-72 71c-40 39-91 79-113 90-59 28-141 30-187 5zm113-411c23-46 25-92 4-109-38-31-116 112-115 211l1 34 45-49c25-27 54-66 65-87zm1038 65c17-14 43-46 57-70 23-38 25-55 27-156 1-71-2-112-8-111-5 1-18 5-27 8-15 6-18 1-18-28 0-20-4-38-9-41-25-16-108 136-97 178 3 13-1 47-10 76-25 83-4 170 41 170 7 0 27-12 44-26z"/></g><g fill="#5f5f5f"><path d="M605 1555c-39-17-32-17 30 0 30 8 40 14 25 14-14 0-38-6-55-14zM880 1523c50-34 110-104 139-161 17-31 30-53 31-49 0 4-11 29-24 55-31 60-94 132-137 155-31 16-31 16-9 0zM3459 1528c48-13 79-36 107-77 13-20 24-31 24-26 0 6-13 27-30 46-31 38-85 70-117 68-10 0-3-5 16-11zM504 1494l-39-35 43 32c38 30 48 39 39 39-2 0-21-16-43-36zM2410 1510c0-15-7-20-25-20-24 0-25-3-25-55v-55l33 1c30 2 30 2 5 6-26 4-28 8-28 49 0 40 2 44 25 44 20 0 25 5 25 25 0 14-2 25-5 25s-5-9-5-20zM2880 1511c0-12-8-21-22-24-20-4-19-4 5-6 23-1 27 3 27 24 0 14-2 25-5 25s-5-9-5-19zM2958 1513c-18-21-31-43-25-43 2 0 13 14 25 30 25 33 24 41 0 13zM3264 1486c-24-24-44-49-44-56s10 2 23 21c12 18 38 44 56 56 19 13 28 23 21 23s-32-20-56-44zM3410 1493c41-5 68-26 86-68 7-16 13-23 14-15 0 18-26 59-50 77-8 7-31 12-50 11l-35-1 35-4zM2268 1478c8-8 12-58 12-160 0-141-1-148-20-148-15 0-20-6-19-27 2-24 2-25 6-5 3 14 12 22 24 22 18 0 19 8 19 149 0 152-4 181-23 181-7 0-7-4 1-12zM2748 1329c3-155 2-159-18-159-16 0-20-6-19-27 2-24 2-25 6-5 3 14 12 22 24 22 18 0 19 9 19 159 0 88-3 162-7 164-5 3-7-66-5-154zM3009 1443c-18-27-41-58-52-70-19-21-19-23-3-23 10 0 33-15 52-34s34-30 34-26c0 5-17 23-39 41l-38 33 35 50c20 28 42 57 51 64 8 7 10 12 3 12-6 0-25-21-43-47zM3355 1482c-5-4-17-16-25-27-11-15-7-14 13 4 24 22 32 31 25 31-2 0-7-4-13-8zM692 1451c-7-4 13-6 45-4 79 6 89 11 23 12-30 0-61-3-68-8zM862 1421c46-29 70-57 113-133 14-24 25-38 25-32s-18 38-40 72c-36 56-108 122-133 122-6 0 10-13 35-29zM633 1414l-28-25 33 22c17 13 32 24 32 26 0 8-11 1-37-23zM2883 1396c-4-8-17-16-28-19-18-4-18-5 2-6 13-1 27 7 33 19 12 22 6 28-7 6zM3513 1335c0-33 2-45 4-27s2 45 0 60-4 0-4-33zM580 1339c-12-22-20-44-18-49 2-4 13 14 25 41 26 59 21 65-7 8zM2461 1371c45-14 70-32 89-64 11-18 20-27 20-21 0 33-78 95-117 93-12 0-9-3 8-8zM3602 1332c-3-93-43-159-117-193-22-10-34-19-27-19 24 0 69 29 100 64 38 44 55 96 50 156l-5 45-1-53zM3203 1330c0-25 2-35 4-22 2 12 2 32 0 45-2 12-4 2-4-23zM3293 1320c0-25 2-35 4-22 2 12 2 32 0 45-2 12-4 2-4-23zM2361 1263c2-79 6-70 11 25 2 28 0 52-4 52-5 0-7-35-7-77zM2426 1329c17-5 36-19 42-31 6-13 11-17 11-10 1 20-37 52-61 51-19-1-17-3 8-10zM413 1270c0-36 2-50 4-32 2 17 2 47 0 65-2 17-4 3-4-33zM2895 1323c11-3 29-12 40-22 20-16 20-16 1 7-11 12-29 21-40 21-20-1-20-2-1-6zM2950 1243c0-46-8-59-40-72-18-7-20-10-7-10 30-1 57 35 57 79 0 22-2 40-5 40s-5-17-5-37zM553 1220c0-30 2-43 4-27 2 15 2 39 0 55-2 15-4 2-4-28zM3042 1240c0-19 2-27 5-17 2 9 2 25 0 35-3 9-5 1-5-18zM1126 1221c-12-13-16-31-13-58l4-38 1 42c2 31 8 46 24 57 12 9 18 16 12 16s-19-9-28-19zM1202 1234c9-3 19-16 21-30 4-21 4-21 3 3-1 20-7 28-21 30-14 1-15 0-3-3zM3310 1223c0-17 51-63 69-62 11 0 10 3-5 9-12 4-31 21-43 36-11 14-21 22-21 17zM3239 1204c12-26 68-74 84-74 7 0-2 9-19 19s-41 32-53 47c-14 18-18 21-12 8zM2463 1190c-7-10-23-20-35-23-21-4-21-4-2-6 20-1 62 34 53 44-3 2-10-4-16-15zM2555 1189c-4-11-21-29-38-40-18-10-26-19-19-19 16 0 72 54 72 69 0 18-8 13-15-10zM420 1189c0-40 64-140 130-203l70-66-38-19c-20-11-47-28-59-38-27-22-73-83-73-97 0-6 8 3 19 19 28 46 71 85 125 112l48 25-23 15c-34 23-107 93-132 127-11 16-31 54-43 85-13 31-24 49-24 40zM3012 1169c-17-21-19-27-7-23 15 6 40 43 33 49-2 1-13-11-26-26zM1021 1180c0-8 4-24 9-35 5-13 9-14 9-5 0 8-4 24-9 35-5 13-9 14-9 5zM1082 1150c0-19 2-27 5-17 2 9 2 25 0 35-3 9-5 1-5-18zM1482 1161c-8-5 8-6 40-4 73 6 83 11 23 12-27 0-56-3-63-8zM1403 1105c-24-25-43-51-43-57 0-7 11 4 25 24 13 19 37 45 52 57 15 11 24 21 19 21s-29-20-53-45zM2935 1130c-28-7-28-8-5-9 14 0 32 4 40 9 17 11 8 11-35 0zM1234 1035c0-55 1-76 3-47s2 74 0 100-3 2-3-53zM1712 1091c26-23 65-63 88-89l40-47-2 50c-1 41-2 44-5 14l-4-37-52 55c-29 30-65 64-82 75-16 11-9 2 17-21zM570 1114c0-5 13-31 30-57 35-55 103-107 139-106 23 1 23 2-6 9-49 11-100 55-133 113-16 29-30 47-30 41zM3393 1113c9-2 25-2 35 0 9 3 1 5-18 5s-27-2-17-5zM1880 1087c0-2 15-14 33-27 20-15 27-17 18-6-13 16-51 41-51 33zM1499 1041c-16-16-29-35-29-43 1-7 7-1 16 14 8 15 27 34 42 42 15 9 21 15 14 16-8 0-27-13-43-29zM1620 1063c8-3 24-10 35-15 20-9 20-9 1 6-11 9-27 16-35 15-14 0-14-1-1-6zM1124 880c0-91 2-128 3-82 2 45 2 119 0 165-1 45-3 8-3-83zM1731 986c25-28 58-70 74-94 15-23 30-42 32-42 12 0-40 70-92 125-33 34-39 39-14 11zM1944 920c0-63 1-89 3-57 2 31 2 83 0 115-2 31-3 5-3-58zM2247 1020c56-12 86-33 129-91 20-27 38-49 40-49 3 0-10 21-28 46-46 65-89 95-140 100l-43 3 42-9zM2156 989c-24-28-26-37-24-122l2-92 5 98c6 93 8 100 34 123 15 13 24 24 18 24-5 0-21-14-35-31zM1525 910c37-41 79-91 93-110 38-51 47-59 26-22-10 18-57 72-102 120-75 77-76 79-17 12zM853 937c12-13 24-22 26-20 6 4-30 43-40 43-5 0 2-10 14-23zM2528 945c61-19 117-60 149-110 16-24 33-51 40-61 11-18 12-18 12-1 1 10 10 36 21 57 24 47 54 58 111 41 37-11 47-21 107-107 7-11 2 1-10 25-29 55-68 88-114 97-49 9-79-8-104-56l-21-42-30 45c-44 67-135 128-186 126-10 0 1-6 25-14zM2439 923l-24-28 30 25c17 14 32 26 34 28 2 1 0 2-6 2-5 0-20-12-34-27zM2256 921c-4-5 3-7 14-4 15 4 32-6 62-38 32-34 36-37 19-12-35 52-81 77-95 54zM2243 860c0-25 2-35 4-22 2 12 2 32 0 45-2 12-4 2-4-23zM1244 795c0-55 1-76 3-47s2 74 0 100-3 2-3-53zM1451 843l2-48 6 39 6 40 44-50c23-27 51-65 62-84 10-19 18-30 19-24 0 21-107 162-132 172-4 2-7-18-7-45zM677 838c-21-17-42-40-48-52-8-15-4-13 13 6 12 16 38 39 57 53s31 25 25 25c-5-1-26-15-47-32zM2538 829c-10-5-18-15-18-22 0-8 3-9 8-1 4 6 16 16 27 22s16 11 10 11c-5 0-18-4-27-10zM2605 808c15-12 41-42 56-67 16-25 29-41 29-35 0 22-85 124-103 124-5 0 3-10 18-22zM1351 810c0-8 6-28 14-45 17-39 18-21 0 25-7 19-14 28-14 20zM2810 779c-6-11-9-25-6-32 2-7 5-5 5 5 1 9 8 24 17 32 8 9 11 16 5 16s-15-9-21-21zM2885 770c47-55 48-56 37-35-6 11-23 31-39 45l-28 25 30-35zM2254 670c0-69 1-97 3-62 2 34 2 90 0 125-2 34-3 6-3-63zM2383 755c0-22 2-30 4-17 2 12 2 30 0 40-3 9-5-1-4-23zM1842 668c-2-115-2-117 24-137 16-13 41-21 64-21 38 0 38 0 41 44 2 24 1 42-3 39-5-2-8-20-8-39 0-32-2-34-34-34-65 0-75 20-79 150l-3 115-2-117zM1960 747c-1-19 62-127 90-156 31-30 63-40 74-22 3 4-5 6-17 4-31-6-71 35-113 117-18 36-33 61-34 57zM1671 710c15-45 24-54 15-15-4 17-12 34-17 40-5 5-4-6 2-25zM3002 695c12-24 23-43 26-41 4 5-36 86-43 86-3 0 5-20 17-45zM2790 568c-3-92-2-164 3-159 4 4 6 79 5 167l-3 159-5-167zM2143 685c0-22 2-30 4-17 2 12 2 30 0 40-3 9-5-1-4-23zM433 650c0-36 2-50 4-32 2 17 2 47 0 65-2 17-4 3-4-33zM2985 600c67-134 82-155 102-139 7 6 13 21 12 33-1 20-1 20-7-2-4-13-11-24-17-25-5-1-37 51-70 115s-64 120-69 125c-4 4 17-44 49-107zM1411 672c14-30 77-100 101-113 11-6-2 11-29 38-27 26-57 59-66 73-16 23-17 23-6 2zM1497 675c12-22 52-61 56-54 1 2-13 20-32 39s-29 26-24 15zM2511 680c0-8 4-24 9-35 5-13 9-14 9-5 0 8-4 24-9 35-5 13-9 14-9 5zM2693 655c0-22 2-30 4-17 2 12 2 30 0 40-3 9-5-1-4-23zM583 615c0-33 2-45 4-27s2 45 0 60-4 0-4-33zM1692 630c0-19 2-27 5-17 2 9 2 25 0 35-3 9-5 1-5-18zM1254 560c0-52 1-74 3-47 2 26 2 68 0 95-2 26-3 4-3-48zM965 628c11-6 26-19 33-27 11-14 11-14 6 2-4 10-15 22-25 27-25 14-38 12-14-2zM834 619c-4-7 0-16 9-20 23-13 59-77 73-129 8-29 13-36 13-20 1 32-29 97-63 137-18 22-23 33-14 36 9 4 10 6 1 6-6 1-15-4-19-10zM1134 485c0-82 2-115 3-72 2 43 2 110 0 150-1 40-3 5-3-78zM3051 595c0-5 8-26 19-45s19-30 19-25c0 6-8 26-19 45s-19 31-19 25zM1666 563c-17-23-24-25-73-21-30 3-48 1-41-3 7-5 31-9 54-9 30 0 46 6 64 25 13 14 22 27 19 29-2 2-12-7-23-21zM441 570c0-8 6-28 14-45 17-39 18-21 0 25-7 19-14 28-14 20zM1986 570c27-53 100-120 130-120 4 0-13 13-39 30-26 16-47 33-47 37-1 5-12 22-26 38-15 17-23 23-18 15zM2421 555c0-5 6-21 14-35s14-20 14-15c0 6-6 21-14 35s-14 21-14 15zM2540 517c-1-17 39-83 61-102l24-20-21 25c-12 14-31 43-42 65-12 22-21 36-22 32zM2209 480c-15-17-23-30-19-30 7 0 32 26 44 48 11 19 3 14-25-18zM2471 451c12-22 43-59 68-83l45-43-46 51c-25 28-53 65-62 82-9 18-19 32-22 32s5-18 17-39zM1043 420c0-36 2-50 4-32 2 17 2 47 0 65-2 17-4 3-4-33zM2638 441c-2-21 0-37 4-35 5 3 8 19 8 35 0 26 2 29 19 19 24-12 31-13 31-2 0 5-6 9-12 9-7 0-20 4-29 7-14 6-17 0-21-33zM501 430c28-57 192-190 234-190 6 0-16 15-48 32-60 32-135 98-176 153-17 23-19 25-10 5zM1264 335c0-55 1-76 3-47s2 74 0 100-3 2-3-53zM660 393c11-18 35-42 53-53l32-22-29 25c-15 14-39 38-53 53l-25 29 22-32zM2726 345c-3-8-16-20-28-25-15-5-17-9-7-9 17-1 56 36 47 44-3 3-8-1-12-10zM1001 289c-13-17-42-39-64-50-23-10-36-19-29-19 29 0 94 47 113 83 15 27 5 20-20-14zM1111 268c-1-17 64-58 91-58 7 1-8 10-34 21-26 12-49 28-51 38-4 14-5 14-6-1zM843 213c9-2 25-2 35 0 9 3 1 5-18 5s-27-2-17-5z"/></g><g fill="#a1a1a1"><path d="M2410 1511c0-12-8-21-22-24-20-4-19-4 5-6 23-1 27 3 27 24 0 14-2 25-5 25s-5-9-5-19zM940 1475c19-19 36-35 39-35s-10 16-29 35-36 35-39 35 10-16 29-35zM2750 1320c0-143-1-150-20-150-15 0-20-6-19-27 2-24 2-25 6-5 3 14 12 22 24 22 18 0 19 9 19 155 0 85-2 155-5 155s-5-67-5-150zM733 1453c15-2 37-2 50 0 12 2 0 4-28 4-27 0-38-2-22-4zM2282 1313c-2-138-3-142-24-146l-23-4 23-2c12 0 25 5 28 12 2 7 3 74 1 148l-3 134-2-142zM2967 1382c-20-22-21-32-5-32 6 0 8 3 5 7-4 3 0 15 10 25 9 10 14 18 11 18s-12-8-21-18zM3203 1330c0-25 2-35 4-22 2 12 2 32 0 45-2 12-4 2-4-23zM3513 1335c0-22 2-30 4-17 2 12 2 30 0 40-3 9-5-1-4-23zM2952 1240c0-19 2-27 5-17 2 9 2 25 0 35-3 9-5 1-5-18zM3042 1240c0-19 2-27 5-17 2 9 2 25 0 35-3 9-5 1-5-18zM553 1220c0-25 2-35 4-22 2 12 2 32 0 45-2 12-4 2-4-23zM1113 1170c0-25 2-35 4-22 2 12 2 32 0 45-2 12-4 2-4-23zM3260 1177c14-16 34-33 45-39 21-11 20-10-35 37l-35 30 25-28zM1082 1150c0-19 2-27 5-17 2 9 2 25 0 35-3 9-5 1-5-18zM1404 1108l-29-33 33 29c30 28 37 36 29 36-2 0-16-15-33-32zM1233 1070c0-36 2-50 4-32 2 17 2 47 0 65-2 17-4 3-4-33zM3393 1113c9-2 25-2 35 0 9 3 1 5-18 5s-27-2-17-5zM1720 995c19-19 36-35 39-35s-10 16-29 35-36 35-39 35 10-16 29-35zM1943 985c0-27 2-38 4-22 2 15 2 37 0 50-2 12-4 0-4-28zM2223 1023c9-2 25-2 35 0 9 3 1 5-18 5s-27-2-17-5zM2159 993l-24-28 30 25c17 14 32 26 34 28 2 1 0 2-6 2-5 0-20-12-34-27zM1520 915c30-30 57-55 59-55 3 0-19 25-49 55s-57 55-59 55c-3 0 19-25 49-55zM1124 820c0-58 1-81 3-52 2 28 2 76 0 105-2 28-3 5-3-53zM1243 830c0-36 2-50 4-32 2 17 2 47 0 65-2 17-4 3-4-33zM1451 858c1-26 3-28 6-9l5 23 31-28c30-27 30-27-2 9-19 20-36 37-38 37s-2-15-2-32zM2803 883c9-2 25-2 35 0 9 3 1 5-18 5s-27-2-17-5zM2133 815c0-22 2-30 4-17 2 12 2 30 0 40-3 9-5-1-4-23zM2253 735c0-33 2-45 4-27s2 45 0 60-4 0-4-33zM2383 755c0-22 2-30 4-17 2 12 2 30 0 40-3 9-5-1-4-23zM433 650c0-36 2-50 4-32 2 17 2 47 0 65-2 17-4 3-4-33zM2693 655c0-22 2-30 4-17 2 12 2 30 0 40-3 9-5-1-4-23zM1692 630c0-19 2-27 5-17 2 9 2 25 0 35-3 9-5 1-5-18zM582 620c0-19 2-27 5-17 2 9 2 25 0 35-3 9-5 1-5-18zM1253 595c0-33 2-45 4-27s2 45 0 60-4 0-4-33zM1465 600c21-22 41-40 44-40s-13 18-34 40-41 40-44 40 13-18 34-40zM1841 579c0-16 8-33 22-45 22-19 22-19 5 1-9 11-18 31-21 45l-4 25-2-26zM1964 586c-3-8-4-25-2-38 3-17 5-13 9 15 5 38 2 47-7 23zM1133 440c0-36 2-50 4-32 2 17 2 47 0 65-2 17-4 3-4-33zM1263 385c0-27 2-38 4-22 2 15 2 37 0 50-2 12-4 0-4-28zM560 355c19-19 36-35 39-35s-10 16-29 35-36 35-39 35 10-16 29-35zM984 268l-29-33 33 29c17 17 32 31 32 33 0 8-8 1-36-29zM843 213c9-2 25-2 35 0 9 3 1 5-18 5s-27-2-17-5z"/></g><g fill="#d7d7d7"><path d="M2754 1305c0-77 2-107 3-67 2 40 2 103 0 140s-3 4-3-73zM1113 1170c0-25 2-35 4-22 2 12 2 32 0 45-2 12-4 2-4-23zM1232 1100c0-19 2-27 5-17 2 9 2 25 0 35-3 9-5 1-5-18zM3393 1113c9-2 25-2 35 0 9 3 1 5-18 5s-27-2-17-5zM1535 900c21-22 41-40 44-40s-13 18-34 40-41 40-44 40 13-18 34-40zM1242 860c0-19 2-27 5-17 2 9 2 25 0 35-3 9-5 1-5-18zM1123 765c0-27 2-38 4-22 2 15 2 37 0 50-2 12-4 0-4-28zM2383 755c0-22 2-30 4-17 2 12 2 30 0 40-3 9-5-1-4-23zM1252 620c0-19 2-27 5-17 2 9 2 25 0 35-3 9-5 1-5-18zM560 355c19-19 36-35 39-35s-10 16-29 35-36 35-39 35 10-16 29-35zM843 213c9-2 25-2 35 0 9 3 1 5-18 5s-27-2-17-5z"/></g></svg>